<svg width="30" height="30" viewBox="0 0 30 30" fill="none" xmlns="http://www.w3.org/2000/svg">
<circle cx="15" cy="15" r="15" fill="white"/>
<path fill-rule="evenodd" clip-rule="evenodd" d="M18.9535 5.76628C17.739 5.25543 16.4212 5 15 5C13.5788 5 12.2481 5.25543 11.0078 5.76628C9.79328 6.2516 8.73386 6.94125 7.82946 7.83525C6.95091 8.7037 6.25323 9.75096 5.73644 10.977C5.24548 12.2031 5 13.5441 5 15C5 16.4559 5.24548 17.7969 5.73644 19.023C6.25323 20.2235 6.95091 21.2708 7.82946 22.1648C8.73386 23.0587 9.79328 23.7612 11.0078 24.272C12.2481 24.7573 13.5788 25 15 25C16.4212 25 17.739 24.7573 18.9535 24.272C20.1938 23.7612 21.2532 23.0587 22.1318 22.1648C23.0362 21.2708 23.7339 20.2235 24.2248 19.023C24.7416 17.7969 25 16.4559 25 15C25 13.5441 24.7416 12.2031 24.2248 10.977C23.7339 9.75096 23.0362 8.7037 22.1318 7.83525C21.2532 6.94125 20.1938 6.2516 18.9535 5.76628ZM21.5017 18.3201C22.0581 17.2768 22.3493 16.1121 22.3493 14.9291H22.2236C17.7086 14.9291 13.379 13.133 10.1898 9.93697L10.0956 9.84253C9.26092 10.679 8.64496 11.7089 8.3023 12.8409C7.95964 13.973 7.90085 15.1722 8.13114 16.3325C8.36143 17.4927 8.8737 18.5781 9.62255 19.4926C10.3714 20.407 11.3338 21.1223 12.4243 21.575C13.5149 22.0277 14.7001 22.2039 15.8748 22.0879C17.0496 21.972 18.1776 21.5675 19.1591 20.9103C20.1406 20.253 20.9452 19.3634 21.5017 18.3201Z" fill="#00D489"/>
</svg>
